<mxfile host="app.diagrams.net" agent="Mozilla/5.0 (Windows NT 10.0; Win64; x64; rv:131.0) Gecko/20100101 Firefox/131.0" version="24.8.1">
  <diagram name="Seite-1" id="-T2844nzSg6uFc6EjAP8">
    <mxGraphModel dx="1434" dy="782" grid="1" gridSize="10" guides="1" tooltips="1" connect="1" arrows="1" fold="1" page="1" pageScale="1" pageWidth="827" pageHeight="1169" math="0" shadow="0">
      <root>
        <mxCell id="0" />
        <mxCell id="1" parent="0" />
        <mxCell id="j8pct50h78kjmeL6dkop-1" value="" style="shape=ellipse;container=1;horizontal=1;horizontalStack=0;resizeParent=1;resizeParentMax=0;resizeLast=0;html=1;dashed=0;collapsible=0;" parent="1" vertex="1">
          <mxGeometry x="360" y="260" width="150" height="70" as="geometry" />
        </mxCell>
        <mxCell id="j8pct50h78kjmeL6dkop-2" value="&lt;font style=&quot;font-size: 11px;&quot;&gt;Rezept erstellen&lt;/font&gt;" style="html=1;strokeColor=none;fillColor=none;align=center;verticalAlign=middle;rotatable=0;whiteSpace=wrap;" parent="j8pct50h78kjmeL6dkop-1" vertex="1">
          <mxGeometry y="5.833333333333333" width="150" height="23.333333333333332" as="geometry" />
        </mxCell>
        <mxCell id="j8pct50h78kjmeL6dkop-3" value="" style="line;strokeWidth=1;fillColor=none;rotatable=0;labelPosition=right;points=[];portConstraint=eastwest;dashed=0;resizeWidth=1;" parent="j8pct50h78kjmeL6dkop-1" vertex="1">
          <mxGeometry x="7.5" y="29.166666666666664" width="135" height="5.833333333333333" as="geometry" />
        </mxCell>
        <mxCell id="j8pct50h78kjmeL6dkop-4" value="&lt;font style=&quot;font-size: 11px;&quot;&gt;extension points&lt;/font&gt;" style="text;html=1;align=center;verticalAlign=middle;rotatable=0;fillColor=none;strokeColor=none;whiteSpace=wrap;" parent="j8pct50h78kjmeL6dkop-1" vertex="1">
          <mxGeometry x="-0.001960784313725405" y="35" width="150" height="17.5" as="geometry" />
        </mxCell>
        <mxCell id="j8pct50h78kjmeL6dkop-5" value="&lt;font style=&quot;font-size: 11px;&quot;&gt;eingeloggt&lt;/font&gt;" style="text;html=1;align=left;verticalAlign=middle;rotatable=0;spacingLeft=25;fillColor=none;strokeColor=none;whiteSpace=wrap;" parent="j8pct50h78kjmeL6dkop-1" vertex="1">
          <mxGeometry x="19.99666666666667" y="46.666666666666664" width="150" height="17.5" as="geometry" />
        </mxCell>
        <mxCell id="j8pct50h78kjmeL6dkop-12" value="User" style="shape=umlActor;verticalLabelPosition=bottom;verticalAlign=top;html=1;direction=east;" parent="1" vertex="1">
          <mxGeometry x="40" y="365" width="30" height="60" as="geometry" />
        </mxCell>
        <mxCell id="j8pct50h78kjmeL6dkop-27" value="" style="endArrow=none;html=1;rounded=0;exitX=0.019;exitY=0.795;exitDx=0;exitDy=0;exitPerimeter=0;" parent="1" source="j8pct50h78kjmeL6dkop-76" edge="1">
          <mxGeometry width="50" height="50" relative="1" as="geometry">
            <mxPoint x="180" y="470" as="sourcePoint" />
            <mxPoint x="80" y="410" as="targetPoint" />
          </mxGeometry>
        </mxCell>
        <mxCell id="j8pct50h78kjmeL6dkop-61" value="&lt;font style=&quot;font-size: 11px;&quot;&gt;Rezept ansehen&lt;br&gt;&lt;/font&gt;" style="ellipse;whiteSpace=wrap;html=1;" parent="1" vertex="1">
          <mxGeometry x="240" y="350" width="110" height="60" as="geometry" />
        </mxCell>
        <mxCell id="j8pct50h78kjmeL6dkop-65" value="Rezept suchen" style="ellipse;whiteSpace=wrap;html=1;" parent="1" vertex="1">
          <mxGeometry x="167" y="247" width="110" height="60" as="geometry" />
        </mxCell>
        <mxCell id="j8pct50h78kjmeL6dkop-68" value="Rezepte nach Kategorien anzeigen" style="ellipse;whiteSpace=wrap;html=1;" parent="1" vertex="1">
          <mxGeometry x="250" y="485" width="110" height="60" as="geometry" />
        </mxCell>
        <mxCell id="j8pct50h78kjmeL6dkop-70" value="" style="shape=ellipse;container=1;horizontal=1;horizontalStack=0;resizeParent=1;resizeParentMax=0;resizeLast=0;html=1;dashed=0;collapsible=0;" parent="1" vertex="1">
          <mxGeometry x="370" y="446" width="150" height="70" as="geometry" />
        </mxCell>
        <mxCell id="j8pct50h78kjmeL6dkop-71" value="&lt;font style=&quot;font-size: 11px;&quot;&gt;Rezept bewerten&lt;/font&gt;" style="html=1;strokeColor=none;fillColor=none;align=center;verticalAlign=middle;rotatable=0;whiteSpace=wrap;" parent="j8pct50h78kjmeL6dkop-70" vertex="1">
          <mxGeometry y="5.833333333333333" width="150" height="23.333333333333332" as="geometry" />
        </mxCell>
        <mxCell id="j8pct50h78kjmeL6dkop-72" value="" style="line;strokeWidth=1;fillColor=none;rotatable=0;labelPosition=right;points=[];portConstraint=eastwest;dashed=0;resizeWidth=1;" parent="j8pct50h78kjmeL6dkop-70" vertex="1">
          <mxGeometry x="7.5" y="29.166666666666664" width="135" height="5.833333333333333" as="geometry" />
        </mxCell>
        <mxCell id="j8pct50h78kjmeL6dkop-73" value="&lt;font style=&quot;font-size: 11px;&quot;&gt;extension points&lt;/font&gt;" style="text;html=1;align=center;verticalAlign=middle;rotatable=0;fillColor=none;strokeColor=none;whiteSpace=wrap;" parent="j8pct50h78kjmeL6dkop-70" vertex="1">
          <mxGeometry x="-0.001960784313725405" y="35" width="150" height="17.5" as="geometry" />
        </mxCell>
        <mxCell id="j8pct50h78kjmeL6dkop-74" value="&lt;font style=&quot;font-size: 10px;&quot;&gt;eingeloggt&lt;/font&gt;" style="text;html=1;align=left;verticalAlign=middle;rotatable=0;spacingLeft=25;fillColor=none;strokeColor=none;whiteSpace=wrap;" parent="j8pct50h78kjmeL6dkop-70" vertex="1">
          <mxGeometry x="19.99666666666667" y="46.666666666666664" width="150" height="17.5" as="geometry" />
        </mxCell>
        <mxCell id="j8pct50h78kjmeL6dkop-81" value="Login" style="ellipse;whiteSpace=wrap;html=1;" parent="1" vertex="1">
          <mxGeometry x="680" y="464" width="110" height="60" as="geometry" />
        </mxCell>
        <mxCell id="j8pct50h78kjmeL6dkop-85" value="&lt;div style=&quot;font-size: 9px;&quot;&gt;&lt;font style=&quot;font-size: 9px;&quot;&gt;{User ist angemeldet}&lt;/font&gt;&lt;/div&gt;&lt;div style=&quot;font-size: 9px;&quot;&gt;&lt;font style=&quot;font-size: 9px;&quot;&gt;extension point: eingeloggt&lt;br&gt;&lt;/font&gt;&lt;/div&gt;" style="shape=note2;boundedLbl=1;whiteSpace=wrap;html=1;size=25;verticalAlign=top;align=left;spacingLeft=5;" parent="1" vertex="1">
          <mxGeometry x="640" y="310" width="150" height="60" as="geometry" />
        </mxCell>
        <mxCell id="j8pct50h78kjmeL6dkop-86" value="&lt;font style=&quot;font-size: 9px;&quot;&gt;&amp;lt;&amp;lt;Vorbedingung&amp;gt;&amp;gt;&lt;/font&gt;" style="resizeWidth=1;part=1;strokeColor=none;fillColor=none;align=left;spacingLeft=5;whiteSpace=wrap;html=1;" parent="j8pct50h78kjmeL6dkop-85" vertex="1">
          <mxGeometry width="150" height="30" relative="1" as="geometry" />
        </mxCell>
        <mxCell id="j8pct50h78kjmeL6dkop-90" value="" style="endArrow=open;html=1;rounded=0;entryX=1;entryY=0.25;entryDx=0;entryDy=0;exitX=0;exitY=0;exitDx=0;exitDy=0;endFill=0;dashed=1;" parent="1" source="j8pct50h78kjmeL6dkop-81" target="j8pct50h78kjmeL6dkop-73" edge="1">
          <mxGeometry width="50" height="50" relative="1" as="geometry">
            <mxPoint x="260" y="510" as="sourcePoint" />
            <mxPoint x="310" y="460" as="targetPoint" />
          </mxGeometry>
        </mxCell>
        <mxCell id="j8pct50h78kjmeL6dkop-112" value="&amp;lt;&amp;lt;exclude&amp;gt;&amp;gt;" style="edgeLabel;html=1;align=center;verticalAlign=middle;resizable=0;points=[];" parent="j8pct50h78kjmeL6dkop-90" vertex="1" connectable="0">
          <mxGeometry x="-0.5238" y="-2" relative="1" as="geometry">
            <mxPoint x="-114" y="-34" as="offset" />
          </mxGeometry>
        </mxCell>
        <mxCell id="j8pct50h78kjmeL6dkop-91" value="" style="endArrow=open;html=1;rounded=0;entryX=1;entryY=1;entryDx=0;entryDy=0;exitX=0.689;exitY=0.956;exitDx=0;exitDy=0;exitPerimeter=0;endFill=0;dashed=1;" parent="1" source="j8pct50h78kjmeL6dkop-81" target="j8pct50h78kjmeL6dkop-76" edge="1">
          <mxGeometry width="50" height="50" relative="1" as="geometry">
            <mxPoint x="751.72" y="537.74" as="sourcePoint" />
            <mxPoint x="391.3480392156862" y="599.4324999999999" as="targetPoint" />
          </mxGeometry>
        </mxCell>
        <mxCell id="j8pct50h78kjmeL6dkop-113" value="&amp;lt;&amp;lt;exclude&amp;gt;&amp;gt;" style="edgeLabel;html=1;align=center;verticalAlign=middle;resizable=0;points=[];" parent="j8pct50h78kjmeL6dkop-91" vertex="1" connectable="0">
          <mxGeometry x="-0.6002" y="2" relative="1" as="geometry">
            <mxPoint y="13" as="offset" />
          </mxGeometry>
        </mxCell>
        <mxCell id="j8pct50h78kjmeL6dkop-92" value="" style="endArrow=open;html=1;rounded=0;entryX=0.818;entryY=0.231;entryDx=0;entryDy=0;exitX=0.5;exitY=0;exitDx=0;exitDy=0;endFill=0;dashed=1;entryPerimeter=0;" parent="1" source="j8pct50h78kjmeL6dkop-81" target="j8pct50h78kjmeL6dkop-5" edge="1">
          <mxGeometry width="50" height="50" relative="1" as="geometry">
            <mxPoint x="690" y="488" as="sourcePoint" />
            <mxPoint x="550" y="450" as="targetPoint" />
          </mxGeometry>
        </mxCell>
        <mxCell id="j8pct50h78kjmeL6dkop-111" value="&amp;lt;&amp;lt;exclude&amp;gt;&amp;gt;" style="edgeLabel;html=1;align=center;verticalAlign=middle;resizable=0;points=[];" parent="j8pct50h78kjmeL6dkop-92" vertex="1" connectable="0">
          <mxGeometry x="-0.1512" y="-1" relative="1" as="geometry">
            <mxPoint x="43" as="offset" />
          </mxGeometry>
        </mxCell>
        <mxCell id="j8pct50h78kjmeL6dkop-94" value="" style="endArrow=none;html=1;rounded=0;exitX=-0.007;exitY=0.747;exitDx=0;exitDy=0;exitPerimeter=0;" parent="1" source="j8pct50h78kjmeL6dkop-85" edge="1">
          <mxGeometry width="50" height="50" relative="1" as="geometry">
            <mxPoint x="653" y="358" as="sourcePoint" />
            <mxPoint x="573" y="363" as="targetPoint" />
          </mxGeometry>
        </mxCell>
        <mxCell id="j8pct50h78kjmeL6dkop-95" value="" style="ellipse;whiteSpace=wrap;html=1;aspect=fixed;" parent="1" vertex="1">
          <mxGeometry x="570" y="360" width="5" height="5" as="geometry" />
        </mxCell>
        <mxCell id="j8pct50h78kjmeL6dkop-99" value="" style="endArrow=none;html=1;rounded=0;exitX=0.694;exitY=-0.024;exitDx=0;exitDy=0;exitPerimeter=0;entryX=0.5;entryY=1;entryDx=0;entryDy=0;" parent="1" source="j8pct50h78kjmeL6dkop-83" edge="1" target="j8pct50h78kjmeL6dkop-100">
          <mxGeometry width="50" height="50" relative="1" as="geometry">
            <mxPoint x="653" y="472" as="sourcePoint" />
            <mxPoint x="573" y="477" as="targetPoint" />
          </mxGeometry>
        </mxCell>
        <mxCell id="j8pct50h78kjmeL6dkop-100" value="" style="ellipse;whiteSpace=wrap;html=1;aspect=fixed;" parent="1" vertex="1">
          <mxGeometry x="600" y="477" width="5" height="5" as="geometry" />
        </mxCell>
        <mxCell id="j8pct50h78kjmeL6dkop-101" value="" style="endArrow=none;html=1;rounded=0;exitX=0;exitY=0;exitDx=0;exitDy=0;" parent="1" source="j8pct50h78kjmeL6dkop-68" edge="1">
          <mxGeometry width="50" height="50" relative="1" as="geometry">
            <mxPoint x="248.46000000000004" y="504.4" as="sourcePoint" />
            <mxPoint x="80" y="406" as="targetPoint" />
          </mxGeometry>
        </mxCell>
        <mxCell id="j8pct50h78kjmeL6dkop-102" value="" style="endArrow=none;html=1;rounded=0;exitX=0.019;exitY=0.736;exitDx=0;exitDy=0;exitPerimeter=0;" parent="1" source="j8pct50h78kjmeL6dkop-71" edge="1">
          <mxGeometry width="50" height="50" relative="1" as="geometry">
            <mxPoint x="250" y="585" as="sourcePoint" />
            <mxPoint x="80" y="401" as="targetPoint" />
          </mxGeometry>
        </mxCell>
        <mxCell id="j8pct50h78kjmeL6dkop-103" value="" style="endArrow=none;html=1;rounded=0;exitX=0;exitY=0.5;exitDx=0;exitDy=0;" parent="1" source="j8pct50h78kjmeL6dkop-61" edge="1">
          <mxGeometry width="50" height="50" relative="1" as="geometry">
            <mxPoint x="243" y="577" as="sourcePoint" />
            <mxPoint x="80" y="393" as="targetPoint" />
          </mxGeometry>
        </mxCell>
        <mxCell id="j8pct50h78kjmeL6dkop-104" value="" style="endArrow=none;html=1;rounded=0;exitX=0;exitY=0.25;exitDx=0;exitDy=0;" parent="1" source="j8pct50h78kjmeL6dkop-4" edge="1">
          <mxGeometry width="50" height="50" relative="1" as="geometry">
            <mxPoint x="243" y="569.5" as="sourcePoint" />
            <mxPoint x="80" y="385.5" as="targetPoint" />
          </mxGeometry>
        </mxCell>
        <mxCell id="j8pct50h78kjmeL6dkop-105" value="" style="endArrow=none;html=1;rounded=0;exitX=0;exitY=1;exitDx=0;exitDy=0;" parent="1" source="j8pct50h78kjmeL6dkop-65" edge="1">
          <mxGeometry width="50" height="50" relative="1" as="geometry">
            <mxPoint x="244" y="562" as="sourcePoint" />
            <mxPoint x="81" y="378" as="targetPoint" />
          </mxGeometry>
        </mxCell>
        <mxCell id="j8pct50h78kjmeL6dkop-106" value="" style="endArrow=open;html=1;rounded=0;exitX=0.5;exitY=1;exitDx=0;exitDy=0;entryX=0.266;entryY=0.034;entryDx=0;entryDy=0;entryPerimeter=0;dashed=1;endFill=0;" parent="1" source="j8pct50h78kjmeL6dkop-67" target="j8pct50h78kjmeL6dkop-65" edge="1">
          <mxGeometry width="50" height="50" relative="1" as="geometry">
            <mxPoint x="370" y="270" as="sourcePoint" />
            <mxPoint x="420" y="220" as="targetPoint" />
          </mxGeometry>
        </mxCell>
        <mxCell id="j8pct50h78kjmeL6dkop-110" value="&amp;lt;&amp;lt;include&amp;gt;&amp;gt;" style="edgeLabel;html=1;align=center;verticalAlign=middle;resizable=0;points=[];" parent="j8pct50h78kjmeL6dkop-106" vertex="1" connectable="0">
          <mxGeometry x="-0.1103" y="3" relative="1" as="geometry">
            <mxPoint x="-36" y="2" as="offset" />
          </mxGeometry>
        </mxCell>
        <mxCell id="j8pct50h78kjmeL6dkop-107" value="" style="endArrow=open;html=1;rounded=0;exitX=0;exitY=1;exitDx=0;exitDy=0;entryX=0.927;entryY=0.233;entryDx=0;entryDy=0;entryPerimeter=0;dashed=1;endFill=0;" parent="1" source="j8pct50h78kjmeL6dkop-66" target="j8pct50h78kjmeL6dkop-65" edge="1">
          <mxGeometry width="50" height="50" relative="1" as="geometry">
            <mxPoint x="195" y="240" as="sourcePoint" />
            <mxPoint x="209" y="262" as="targetPoint" />
          </mxGeometry>
        </mxCell>
        <mxCell id="j8pct50h78kjmeL6dkop-108" value="&amp;lt;&amp;lt;include&amp;gt;&amp;gt;" style="edgeLabel;html=1;align=center;verticalAlign=middle;resizable=0;points=[];" parent="j8pct50h78kjmeL6dkop-107" vertex="1" connectable="0">
          <mxGeometry x="-0.0934" y="-2" relative="1" as="geometry">
            <mxPoint x="33" y="6" as="offset" />
          </mxGeometry>
        </mxCell>
        <mxCell id="j8pct50h78kjmeL6dkop-115" value="&lt;b&gt;uc &lt;/b&gt;GourmetGuide" style="shape=umlFrame;whiteSpace=wrap;html=1;pointerEvents=0;recursiveResize=0;container=1;collapsible=0;width=160;" parent="1" vertex="1">
          <mxGeometry x="17" y="120" width="800" height="580" as="geometry" />
        </mxCell>
        <mxCell id="j8pct50h78kjmeL6dkop-82" value="&lt;div style=&quot;font-size: 9px;&quot;&gt;&lt;font style=&quot;font-size: 9px;&quot;&gt;{User ist angemeldet}&lt;/font&gt;&lt;/div&gt;&lt;div style=&quot;font-size: 9px;&quot;&gt;&lt;font style=&quot;font-size: 9px;&quot;&gt;extension point: eingeloggt&lt;br&gt;&lt;/font&gt;&lt;/div&gt;" style="shape=note2;boundedLbl=1;whiteSpace=wrap;html=1;size=25;verticalAlign=top;align=left;spacingLeft=5;" parent="j8pct50h78kjmeL6dkop-115" vertex="1">
          <mxGeometry x="500.5" y="371" width="142.5" height="57" as="geometry" />
        </mxCell>
        <mxCell id="j8pct50h78kjmeL6dkop-83" value="&lt;font style=&quot;font-size: 9px;&quot;&gt;&amp;lt;&amp;lt;Vorbedingung&amp;gt;&amp;gt;&lt;/font&gt;" style="resizeWidth=1;part=1;strokeColor=none;fillColor=none;align=left;spacingLeft=5;whiteSpace=wrap;html=1;" parent="j8pct50h78kjmeL6dkop-82" vertex="1">
          <mxGeometry width="142.5" height="30" relative="1" as="geometry" />
        </mxCell>
        <mxCell id="j8pct50h78kjmeL6dkop-75" value="" style="shape=ellipse;container=1;horizontal=1;horizontalStack=0;resizeParent=1;resizeParentMax=0;resizeLast=0;html=1;dashed=0;collapsible=0;" parent="j8pct50h78kjmeL6dkop-115" vertex="1">
          <mxGeometry x="270" y="475" width="150" height="70" as="geometry" />
        </mxCell>
        <mxCell id="j8pct50h78kjmeL6dkop-76" value="Rezept speichern" style="html=1;strokeColor=none;fillColor=none;align=center;verticalAlign=middle;rotatable=0;whiteSpace=wrap;" parent="j8pct50h78kjmeL6dkop-75" vertex="1">
          <mxGeometry y="5.833333333333333" width="150" height="23.333333333333332" as="geometry" />
        </mxCell>
        <mxCell id="j8pct50h78kjmeL6dkop-77" value="" style="line;strokeWidth=1;fillColor=none;rotatable=0;labelPosition=right;points=[];portConstraint=eastwest;dashed=0;resizeWidth=1;" parent="j8pct50h78kjmeL6dkop-75" vertex="1">
          <mxGeometry x="7.5" y="29.166666666666664" width="135" height="5.833333333333333" as="geometry" />
        </mxCell>
        <mxCell id="j8pct50h78kjmeL6dkop-78" value="&lt;font style=&quot;font-size: 11px;&quot;&gt;extension points&lt;/font&gt;" style="text;html=1;align=center;verticalAlign=middle;rotatable=0;fillColor=none;strokeColor=none;whiteSpace=wrap;" parent="j8pct50h78kjmeL6dkop-75" vertex="1">
          <mxGeometry x="-0.001960784313725405" y="35" width="150" height="17.5" as="geometry" />
        </mxCell>
        <mxCell id="j8pct50h78kjmeL6dkop-79" value="&lt;font style=&quot;font-size: 11px;&quot;&gt;speichern&lt;/font&gt;" style="text;html=1;align=left;verticalAlign=middle;rotatable=0;spacingLeft=25;fillColor=none;strokeColor=none;whiteSpace=wrap;" parent="j8pct50h78kjmeL6dkop-75" vertex="1">
          <mxGeometry x="19.99666666666667" y="52.49666666666666" width="150" height="17.5" as="geometry" />
        </mxCell>
        <mxCell id="j8pct50h78kjmeL6dkop-87" value="&lt;div style=&quot;font-size: 9px;&quot;&gt;&lt;font style=&quot;font-size: 9px;&quot;&gt;{User ist angemeldet}&lt;/font&gt;&lt;/div&gt;&lt;div style=&quot;font-size: 9px;&quot;&gt;&lt;font style=&quot;font-size: 9px;&quot;&gt;extension point: eingeloggt&lt;br&gt;&lt;/font&gt;&lt;/div&gt;" style="shape=note2;boundedLbl=1;whiteSpace=wrap;html=1;size=25;verticalAlign=top;align=left;spacingLeft=5;" parent="j8pct50h78kjmeL6dkop-115" vertex="1">
          <mxGeometry x="530" y="481" width="150" height="60" as="geometry" />
        </mxCell>
        <mxCell id="j8pct50h78kjmeL6dkop-88" value="&lt;font style=&quot;font-size: 9px;&quot;&gt;&amp;lt;&amp;lt;Vorbedingung&amp;gt;&amp;gt;&lt;/font&gt;" style="resizeWidth=1;part=1;strokeColor=none;fillColor=none;align=left;spacingLeft=5;whiteSpace=wrap;html=1;" parent="j8pct50h78kjmeL6dkop-87" vertex="1">
          <mxGeometry width="150" height="30" relative="1" as="geometry" />
        </mxCell>
        <mxCell id="j8pct50h78kjmeL6dkop-98" value="" style="ellipse;whiteSpace=wrap;html=1;aspect=fixed;" parent="j8pct50h78kjmeL6dkop-115" vertex="1">
          <mxGeometry x="567" y="453" width="5" height="5" as="geometry" />
        </mxCell>
        <mxCell id="j8pct50h78kjmeL6dkop-97" value="" style="endArrow=none;html=1;rounded=0;exitX=0.297;exitY=-0.019;exitDx=0;exitDy=0;exitPerimeter=0;entryX=0.5;entryY=1;entryDx=0;entryDy=0;" parent="j8pct50h78kjmeL6dkop-115" source="j8pct50h78kjmeL6dkop-88" edge="1" target="j8pct50h78kjmeL6dkop-98">
          <mxGeometry width="50" height="50" relative="1" as="geometry">
            <mxPoint x="620" y="450" as="sourcePoint" />
            <mxPoint x="540" y="455" as="targetPoint" />
          </mxGeometry>
        </mxCell>
        <mxCell id="j8pct50h78kjmeL6dkop-67" value="nach Zutaten filtern" style="ellipse;whiteSpace=wrap;html=1;" parent="j8pct50h78kjmeL6dkop-115" vertex="1">
          <mxGeometry x="110" y="50" width="110" height="60" as="geometry" />
        </mxCell>
        <mxCell id="j8pct50h78kjmeL6dkop-66" value="nach Allergenen filtern" style="ellipse;whiteSpace=wrap;html=1;" parent="j8pct50h78kjmeL6dkop-115" vertex="1">
          <mxGeometry x="300" y="70" width="110" height="60" as="geometry" />
        </mxCell>
        <mxCell id="xvuDvJ5_4io_k5bxyJvH-7" value="" style="endArrow=none;html=1;rounded=0;entryX=0.032;entryY=0.686;entryDx=0;entryDy=0;entryPerimeter=0;" edge="1" parent="j8pct50h78kjmeL6dkop-115" target="j8pct50h78kjmeL6dkop-67">
          <mxGeometry width="50" height="50" relative="1" as="geometry">
            <mxPoint x="64" y="253" as="sourcePoint" />
            <mxPoint x="104" y="93" as="targetPoint" />
          </mxGeometry>
        </mxCell>
        <mxCell id="xvuDvJ5_4io_k5bxyJvH-11" value="" style="rounded=0;whiteSpace=wrap;html=1;fillColor=none;" vertex="1" parent="j8pct50h78kjmeL6dkop-115">
          <mxGeometry x="100" y="40" width="680" height="520" as="geometry" />
        </mxCell>
        <mxCell id="xvuDvJ5_4io_k5bxyJvH-1" value="" style="endArrow=none;html=1;rounded=0;entryX=0.212;entryY=0.081;entryDx=0;entryDy=0;entryPerimeter=0;" edge="1" parent="1" target="j8pct50h78kjmeL6dkop-81">
          <mxGeometry width="50" height="50" relative="1" as="geometry">
            <mxPoint x="80" y="400" as="sourcePoint" />
            <mxPoint x="420" y="420" as="targetPoint" />
          </mxGeometry>
        </mxCell>
        <mxCell id="xvuDvJ5_4io_k5bxyJvH-6" value="" style="endArrow=none;html=1;rounded=0;entryX=0.5;entryY=1;entryDx=0;entryDy=0;" edge="1" parent="1">
          <mxGeometry width="50" height="50" relative="1" as="geometry">
            <mxPoint x="80" y="383" as="sourcePoint" />
            <mxPoint x="375" y="251" as="targetPoint" />
          </mxGeometry>
        </mxCell>
      </root>
    </mxGraphModel>
  </diagram>
</mxfile>
